PathFileType	4	(X/Y/Z)	/Users/itak/Documents/Research/Walk-IL/dataset/trc/00469_00167.trc
DataRate	CameraRate	NumFrames	NumMarkers	Units	OrigDataRate	OrigDataStartFrame	OrigNumFrames
100.000000	100.000000	4	53	mm	100.000000	392	628
Frame#	Time	RPSI			LPSI			L3			STRN			T10			C7			CLAV			RBAK			LBAK			LSHO			LUPA			LAEL			LAOL			LWTS			LWPS			LFRA			LIFD			LHPS			LHTS			RSHO			RUPA			RAEL			RAOL			RWTS			RWPS			RFRA			RIFD			RHTS			RHPS			RBHD			LFHD			RFHD			LBHD			LHIP			RHIP			RASI			LASI			LKNE			LTHI			LANK			LTIP			LTOE			LMT1			LMT5			LHEE			RKNE			RTHI			RANK			RTIP			RTOE			RMT1			RMT5			RHEE			
		X1	Y1	Z1	X2	Y2	Z2	X3	Y3	Z3	X4	Y4	Z4	X5	Y5	Z5	X6	Y6	Z6	X7	Y7	Z7	X8	Y8	Z8	X9	Y9	Z9	X10	Y10	Z10	X11	Y11	Z11	X12	Y12	Z12	X13	Y13	Z13	X14	Y14	Z14	X15	Y15	Z15	X16	Y16	Z16	X17	Y17	Z17	X18	Y18	Z18	X19	Y19	Z19	X20	Y20	Z20	X21	Y21	Z21	X22	Y22	Z22	X23	Y23	Z23	X24	Y24	Z24	X25	Y25	Z25	X26	Y26	Z26	X27	Y27	Z27	X28	Y28	Z28	X29	Y29	Z29	X30	Y30	Z30	X31	Y31	Z31	X32	Y32	Z32	X33	Y33	Z33	X34	Y34	Z34	X35	Y35	Z35	X36	Y36	Z36	X37	Y37	Z37	X38	Y38	Z38	X39	Y39	Z39	X40	Y40	Z40	X41	Y41	Z41	X42	Y42	Z42	X43	Y43	Z43	X44	Y44	Z44	X45	Y45	Z45	X46	Y46	Z46	X47	Y47	Z47	X48	Y48	Z48	X49	Y49	Z49	X50	Y50	Z50	X51	Y51	Z51	X52	Y52	Z52	X53	Y53	Z53	

393	3.92	486.1189880371094	959.0219116210938	-404.669677734375	474.80908203125	960.3397827148438	-262.1506042480469	450.6591796875	1055.00341796875	-368.9573974609375	153.6143341064453	1218.759765625	-389.0128479003906	445.042236328125	1178.547241210938	-383.9488525390625	348.6427307128906	1435.44970703125	-421.6802673339844	177.8298187255859	1334.366333007812	-394.8794250488281	423.4405517578125	1314.715087890625	-504.6923522949219	390.9616088867188	1400.720947265625	-320.9258422851562	290.9072875976562	1416.670166015625	-240.434814453125	324.4597473144531	1315.14306640625	-130.5897521972656	320.3711242675781	1113.259521484375	-68.37577056884766	392.7571411132812	1076.5751953125	-134.4072418212891	159.3437805175781	981.4537353515625	-129.6271209716797	189.3347625732422	938.8377685546875	-76.70616912841797	262.9819946289062	1042.67822265625	-64.68801879882812	67.93064880371094	851.6278686523438	-126.8264541625977	140.9255218505859	879.8178100585938	-79.94819641113281	99.22031402587891	920.3139038085938	-123.656982421875	285.3626708984375	1384.385009765625	-576.2236938476562	309.5553283691406	1321.898559570312	-647.7789306640625	320.8638305664062	1030.860473632812	-686.8073120117188	374.8705139160156	1016.78857421875	-649.0796508789062	218.5828552246094	833.9238891601562	-610.6119384765625	277.6647644042969	811.1722412109375	-672.531494140625	315.1585998535156	971.0132446289062	-689.9927978515625	210.9180450439453	678.0905151367188	-602.4349365234375	200.6836547851562	737.1171264648438	-608.1790161132812	260.2345275878906	727.3470458984375	-658.6971435546875	218.3815002441406	1612.36376953125	-518.5123291015625	85.29521179199219	1605.202270507812	-360.1077270507812	84.5599365234375	1594.745727539062	-491.0847778320312	234.0004272460938	1635.137939453125	-342.9876098632812	314.543701171875	876.433837890625	-147.6842956542969	398.9945068359375	834.9248046875	-539.6823120117188	282.1431579589844	863.5721435546875	-497.1844482421875	244.8164215087891	904.5623168945312	-251.9883728027344	123.6598587036133	496.66015625	-179.5580139160156	168.8861694335938	648.9005737304688	-169.5858154296875	96.11381530761719	69.01634979248047	-152.8148498535156	96.11478424072266	343.4956970214844	-156.0952911376953	-108.0661849975586	145.2737579345703	-252.2728424072266	-31.82027816772461	124.2500839233398	-271.8320007324219	-45.10583877563477	118.8074111938477	-161.8764495849609	148.1461029052734	59.09102630615234	-210.0007171630859	445.1151733398438	452.2104187011719	-501.6271667480469	374.2705383300781	697.1393432617188	-544.03125	651.3212890625	74.5125732421875	-505.5269470214844	493.7962951660156	314.1707153320312	-505.4216003417969	479.9933471679688	42.19700241088867	-383.5228576660156	549.4749145507812	48.38047409057617	-376.8646240234375	524.6304321289062	40.34010696411133	-481.1500244140625	727.7835083007812	99.94646453857422	-485.6251831054688	
394	3.93	479.2314453125	957.5997314453125	-400.6459045410156	466.4080200195312	957.9031372070312	-258.3705749511719	443.8534851074219	1053.118408203125	-364.4346618652344	147.8574066162109	1217.917724609375	-386.7121276855469	438.6920776367188	1176.887451171875	-378.5018005371094	343.8612670898438	1434.38232421875	-415.671142578125	172.3826446533203	1333.462524414062	-391.6103820800781	419.3355102539062	1313.9013671875	-498.3062133789062	384.835693359375	1398.945922851562	-314.5691223144531	283.8526000976562	1414.699340820312	-235.2422332763672	315.869873046875	1312.174682617188	-125.8200912475586	310.9377136230469	1109.535888671875	-65.18209838867188	384.0178527832031	1073.731567382812	-130.7727813720703	151.8175354003906	975.9840087890625	-128.0561065673828	182.1113128662109	933.50830078125	-75.01441955566406	254.2719268798828	1038.278198242188	-62.21660232543945	61.98636627197266	845.0991821289062	-126.2082214355469	134.4082641601562	873.90966796875	-78.80197906494141	92.46590423583984	914.1380615234375	-122.5708465576172	282.4338684082031	1384.357055664062	-571.2532958984375	307.8534851074219	1322.41748046875	-642.9321899414062	320.6646728515625	1031.48046875	-683.4428100585938	374.3506164550781	1017.585510253906	-645.0971069335938	218.2957763671875	833.7556762695312	-610.2122192382812	278.3350219726562	811.59326171875	-671.2825317382812	315.3984069824219	971.7698364257812	-687.1771240234375	210.9734497070312	677.934326171875	-603.0402221679688	200.6193542480469	737.009033203125	-608.6112670898438	260.8850708007812	727.2506713867188	-658.0322265625	214.93798828125	1611.613037109375	-513.8538818359375	80.44851684570312	1604.777099609375	-356.7569580078125	80.87157440185547	1594.495971679688	-487.7784423828125	229.1159515380859	1634.166748046875	-338.2051086425781	305.5537414550781	872.6788940429688	-146.2331085205078	393.9769897460938	834.7890625	-537.7321166992188	276.4486694335938	862.9212646484375	-496.185302734375	236.2316436767578	901.6195678710938	-250.6468658447266	119.7981033325195	490.9530944824219	-180.5221405029297	162.9065856933594	643.5173950195312	-169.6575317382812	94.15556335449219	63.51984024047852	-155.0673980712891	92.73159027099609	337.7858276367188	-157.7527770996094	-109.9448165893555	138.6204223632812	-255.3491058349609	-33.57442474365234	117.7366104125977	-274.6670532226562	-47.15228652954102	112.6875991821289	-164.6767730712891	146.4410858154297	53.77785873413086	-212.0358581542969	442.010986328125	452.201171875	-500.9927673339844	370.0855407714844	696.95361328125	-542.99072265625	651.7320556640625	75.93355560302734	-504.2344970703125	492.0163879394531	314.5316772460938	-504.7762145996094	480.1538391113281	42.34710693359375	-383.9148864746094	549.21533203125	48.60501098632812	-376.578125	525.4122314453125	40.20696640014648	-481.1732788085938	727.681396484375	102.4981994628906	-483.5726623535156	
395	3.94	472.0432434082031	956.0975952148438	-396.546630859375	457.6759033203125	955.3822631835938	-254.5274658203125	436.8193359375	1051.100830078125	-359.8281860351562	141.8904113769531	1217.019653320312	-384.2872009277344	432.0943908691406	1175.110473632812	-372.9900512695312	338.86962890625	1433.2021484375	-409.5604248046875	166.7334594726562	1332.487426757812	-388.2229919433594	414.9726867675781	1312.961303710938	-491.8310241699219	378.5252990722656	1397.038452148438	-308.15478515625	276.6579284667969	1412.65283203125	-229.9741516113281	307.1728820800781	1309.1123046875	-121.036735534668	301.36376953125	1105.713256835938	-62.00779342651367	375.118408203125	1070.796875	-127.1647109985352	144.2304382324219	970.3674926757812	-126.4391098022461	174.8712768554688	928.0639038085938	-73.28036499023438	245.4651794433594	1033.773071289062	-59.74028015136719	56.04365539550781	838.4368286132812	-125.4894027709961	127.8938064575195	867.8871459960938	-77.58845520019531	85.68111419677734	907.8218383789062	-121.4076385498047	279.2922973632812	1384.266479492188	-566.1437377929688	305.7704162597656	1322.775512695312	-637.8727416992188	320.2317810058594	1032.066162109375	-679.940185546875	373.553466796875	1018.34716796875	-640.9588012695312	217.9665832519531	833.387939453125	-609.8896484375	279.0651550292969	811.963623046875	-670.0925903320312	315.4584045410156	972.4884643554688	-684.2643432617188	211.2445983886719	677.533203125	-603.9702758789062	200.6558685302734	736.6600341796875	-609.2818603515625	261.7466430664062	727.1202392578125	-657.5701293945312	211.3364105224609	1610.788452148438	-509.0552978515625	75.45046997070312	1604.292846679688	-353.23291015625	77.00377655029297	1594.193481445312	-484.2656860351562	224.0916900634766	1633.090942382812	-333.2915649414062	296.1871032714844	868.8114013671875	-144.8676605224609	388.6506652832031	834.5708618164062	-535.7030029296875	270.4733276367188	862.2550048828125	-495.2190246582031	227.3142395019531	898.5004272460938	-249.4551239013672	115.8796157836914	485.13427734375	-181.3456573486328	156.7479553222656	637.959228515625	-169.5924682617188	92.7091064453125	58.08391189575195	-156.8930511474609	89.46000671386719	331.9725036621094	-159.2324829101562	-111.4895782470703	131.3866424560547	-258.1327514648438	-34.93883514404297	110.8012619018555	-277.1832885742188	-48.80926895141602	106.2324905395508	-167.1390228271484	145.3238372802734	48.66120910644531	-213.6015167236328	438.6719360351562	452.1922607421875	-500.4529418945312	365.6666259765625	696.7659301757812	-542.0224609375	651.9338989257812	77.35756683349609	-503.15087890625	490.0262451171875	314.9049377441406	-504.2554931640625	480.3180236816406	42.50297164916992	-384.2665710449219	548.9380493164062	48.8459358215332	-376.3656311035156	526.0694580078125	40.08111572265625	-481.213623046875	727.3704833984375	105.0800933837891	-481.8272094726562	
396	3.95	464.5538330078125	954.519287109375	-392.3976745605469	448.6321411132812	952.8045043945312	-250.6283721923828	429.544189453125	1048.958862304688	-355.1462707519531	135.7039947509766	1216.077270507812	-381.7339172363281	425.2582702636719	1173.224975585938	-367.4015808105469	333.6775817871094	1431.919311523438	-403.3514404296875	160.8859405517578	1331.4541015625	-384.7254028320312	410.3587341308594	1311.888305664062	-485.2654113769531	372.0431823730469	1395.008056640625	-301.6849365234375	269.3267211914062	1410.543579101562	-224.6351776123047	298.3645324707031	1305.973754882812	-116.2326736450195	291.6461791992188	1101.806030273438	-58.84883880615234	366.0616455078125	1067.793334960938	-123.5737228393555	136.6011657714844	964.6082763671875	-124.7690124511719	167.6219940185547	922.5126342773438	-71.50289916992188	236.5650939941406	1029.176025390625	-57.24924468994141	50.13092041015625	831.6316528320312	-124.6918334960938	121.3990707397461	861.7515869140625	-76.31301879882812	78.88675689697266	901.3599853515625	-120.1806182861328	275.9592590332031	1384.111938476562	-560.9057006835938	303.3347473144531	1322.97509765625	-632.6146850585938	319.5551147460938	1032.625610351562	-676.3076171875	372.460693359375	1019.060729980469	-636.66259765625	217.6028747558594	832.8372192382812	-609.634765625	279.8470153808594	812.2935180664062	-668.9461669921875	315.3292541503906	973.169921875	-681.2544555664062	211.7770843505859	676.9011840820312	-605.1885986328125	200.8336639404297	736.0668334960938	-610.1554565429688	262.8153686523438	726.9945678710938	-657.305419921875	207.5618286132812	1609.901611328125	-504.1194458007812	70.29698181152344	1603.749267578125	-349.5409851074219	72.96002960205078	1593.841674804688	-480.5619812011719	218.9078521728516	1631.92724609375	-328.2498168945312	286.4735107421875	864.867431640625	-143.5721130371094	383.0027160644531	834.2735595703125	-533.6046752929688	264.1936645507812	861.571044921875	-494.25830078125	218.082275390625	895.224609375	-248.4019470214844	111.9136428833008	479.2623596191406	-182.0102691650391	150.4624328613281	632.240966796875	-169.3479156494141	91.62975311279297	52.85114288330078	-158.3214111328125	86.24563598632812	326.1397094726562	-160.5493621826172	-112.910026550293	123.5554275512695	-260.6341552734375	-36.1168098449707	103.505256652832	-279.3912048339844	-50.25585174560547	99.45501708984375	-169.2831878662109	144.6113891601562	43.94276428222656	-214.749755859375	435.0563659667969	452.1946411132812	-499.9745178222656	360.9603576660156	696.56884765625	-541.1058349609375	651.9281005859375	78.80228424072266	-502.2667236328125	487.7998046875	315.2921142578125	-503.8385925292969	480.4856872558594	42.65952682495117	-384.5829772949219	548.6387329101562	49.09927368164062	-376.2107849121094	526.6010131835938	39.96175003051758	-481.2670288085938	726.8460083007812	107.7225723266602	-480.3760070800781	
